<svg width="26" height="19" viewBox="0 0 26 19" fill="none" xmlns="http://www.w3.org/2000/svg">
<path d="M20.5833 2.375H5.41667C4.84203 2.375 4.29093 2.54181 3.8846 2.83875C3.47827 3.13568 3.25 3.53841 3.25 3.95833V15.0417C3.25 15.4616 3.47827 15.8643 3.8846 16.1613C4.29093 16.4582 4.84203 16.625 5.41667 16.625H20.5833C21.158 16.625 21.7091 16.4582 22.1154 16.1613C22.5217 15.8643 22.75 15.4616 22.75 15.0417V3.95833C22.75 3.53841 22.5217 3.13568 22.1154 2.83875C21.7091 2.54181 21.158 2.375 20.5833 2.375ZM20.5833 3.95833V15.0417H5.41667V3.95833H20.5833ZM10.8333 13.4583L6.5 10.2917L8.0275 9.1675L10.8333 11.2179L17.9725 6.00083L19.5 7.125" fill="black"/>
</svg>
