<svg width="100" height="100" viewBox="0 0 220 220" fill="none" xmlns="http://www.w3.org/2000/svg">
<path d="M192.5 100.833V82.5H174.167V64.1667C174.152 59.3088 172.216 54.6541 168.781 51.2191C165.346 47.784 160.691 45.8478 155.833 45.8333H137.5V27.5H119.167V45.8333H100.833V27.5H82.5V45.8333H64.1667C59.3088 45.8478 54.6541 47.784 51.2191 51.2191C47.784 54.6541 45.8478 59.3088 45.8333 64.1667V82.5H27.5V100.833H45.8333V119.167H27.5V137.5H45.8333V155.833C45.8478 160.691 47.784 165.346 51.2191 168.781C54.6541 172.216 59.3088 174.152 64.1667 174.167H82.5V192.5H100.833V174.167H119.167V192.5H137.5V174.167H155.833C160.691 174.152 165.346 172.216 168.781 168.781C172.216 165.346 174.152 160.691 174.167 155.833V137.5H192.5V119.167H174.167V100.833H192.5ZM155.833 155.833H64.1667V64.1667H155.833V155.833Z" fill="black"/>
<path d="M104.143 73.3333H91.8133L73.3883 146.667H82.8025L87.0558 129.479H108.286L112.429 146.667H122.164L104.143 73.3333ZM88.2933 122.137L97.625 82.0416H98.0467L107.058 122.137H88.2933ZM130.57 73.3333H139.737V146.667H130.57V73.3333Z" fill="black"/>
</svg>
