<svg width="100" height="100" viewBox="0 0 200 200" fill="none" xmlns="http://www.w3.org/2000/svg">
<path d="M168.75 150C164.885 150.011 161.118 151.219 157.967 153.457C154.815 155.695 152.434 158.854 151.15 162.5H135.113L125.375 143.025C140.094 134.325 150 118.338 150 100C150 81.6625 140.094 65.675 125.375 56.975L135.113 37.5H151.15C152.434 41.1457 154.815 44.3045 157.967 46.5426C161.118 48.7808 164.885 49.9885 168.75 50C179.087 50 187.5 41.5875 187.5 31.25C187.5 20.9125 179.087 12.5 168.75 12.5C164.885 12.5115 161.118 13.7192 157.967 15.9574C154.815 18.1955 152.434 21.3543 151.15 25H135.113C132.789 24.9929 130.51 25.6366 128.534 26.8584C126.558 28.0801 124.963 29.8309 123.931 31.9125L113.887 51.9938C109.475 50.7188 104.825 50 100 50C95.175 50 90.525 50.7188 86.1125 52L76.0625 31.9C75.0282 29.8198 73.432 28.0709 71.4547 26.8514C69.4774 25.6319 67.1981 24.9905 64.875 25H48.8563C47.5718 21.3533 45.1897 18.1938 42.0371 15.9556C38.8846 13.7173 35.1163 12.5102 31.25 12.5C20.9125 12.5 12.5 20.9125 12.5 31.25C12.5 41.5875 20.9125 50 31.25 50C35.1152 49.9885 38.8821 48.7808 42.0334 46.5426C45.1847 44.3045 47.5659 41.1457 48.85 37.5H64.8875L74.625 56.975C59.9 65.675 50 81.6625 50 100C50 118.338 59.9 134.325 74.625 143.025L64.8875 162.5H48.85C47.5659 158.854 45.1847 155.695 42.0334 153.457C38.8821 151.219 35.1152 150.011 31.25 150C20.9125 150 12.5 158.413 12.5 168.75C12.5 179.087 20.9125 187.5 31.25 187.5C35.1152 187.489 38.8821 186.281 42.0334 184.043C45.1847 181.805 47.5659 178.646 48.85 175H64.8875C67.2109 175.007 69.4898 174.363 71.466 173.142C73.4422 171.92 75.0367 170.169 76.0687 168.087L86.1125 148.006C90.525 149.281 95.175 150 100 150C104.825 150 109.475 149.281 113.887 148L123.931 168.087C124.963 170.169 126.558 171.92 128.534 173.142C130.51 174.363 132.789 175.007 135.113 175H151.15C152.434 178.646 154.815 181.805 157.967 184.043C161.118 186.281 164.885 187.489 168.75 187.5C179.087 187.5 187.5 179.087 187.5 168.75C187.5 158.413 179.087 150 168.75 150ZM168.75 25C170.359 25.072 171.879 25.7619 172.992 26.9261C174.105 28.0904 174.727 29.6391 174.727 31.25C174.727 32.8609 174.105 34.4096 172.992 35.5739C171.879 36.7381 170.359 37.428 168.75 37.5C167.092 37.5 165.503 36.8415 164.331 35.6694C163.158 34.4973 162.5 32.9076 162.5 31.25C162.5 29.5924 163.158 28.0027 164.331 26.8306C165.503 25.6585 167.092 25 168.75 25ZM31.25 37.5C29.6408 37.428 28.1213 36.7381 27.008 35.5739C25.8947 34.4096 25.2733 32.8609 25.2733 31.25C25.2733 29.6391 25.8947 28.0904 27.008 26.9261C28.1213 25.7619 29.6408 25.072 31.25 25C32.8592 25.072 34.3787 25.7619 35.492 26.9261C36.6053 28.0904 37.2267 29.6391 37.2267 31.25C37.2267 32.8609 36.6053 34.4096 35.492 35.5739C34.3787 36.7381 32.8592 37.428 31.25 37.5ZM31.25 175C29.6408 174.928 28.1213 174.238 27.008 173.074C25.8947 171.91 25.2733 170.361 25.2733 168.75C25.2733 167.139 25.8947 165.59 27.008 164.426C28.1213 163.262 29.6408 162.572 31.25 162.5C32.8592 162.572 34.3787 163.262 35.492 164.426C36.6053 165.59 37.2267 167.139 37.2267 168.75C37.2267 170.361 36.6053 171.91 35.492 173.074C34.3787 174.238 32.8592 174.928 31.25 175ZM64.2875 100C64.2875 80.3125 80.3063 64.2875 100 64.2875C119.694 64.2875 135.713 80.3063 135.713 100C135.713 119.694 119.694 135.713 100 135.713C80.3063 135.713 64.2875 119.694 64.2875 100ZM168.75 175C167.141 174.928 165.621 174.238 164.508 173.074C163.395 171.91 162.773 170.361 162.773 168.75C162.773 167.139 163.395 165.59 164.508 164.426C165.621 163.262 167.141 162.572 168.75 162.5C170.359 162.572 171.879 163.262 172.992 164.426C174.105 165.59 174.727 167.139 174.727 168.75C174.727 170.361 174.105 171.91 172.992 173.074C171.879 174.238 170.359 174.928 168.75 175ZM116.188 78.4813L125 87.5L93.75 118.75L75 100L84.025 90.975L93.775 101.112L116.188 78.4813Z" fill="black"/>
</svg>
