<svg width="100" height="100" viewBox="0 0 200 200" fill="none" xmlns="http://www.w3.org/2000/svg">
<path d="M74.4016 153.312C74.4016 153.312 66.9531 157.647 79.7094 159.109C95.1656 160.875 103.064 160.622 120.092 157.403C120.092 157.403 124.578 160.208 130.831 162.639C92.6453 178.998 44.4125 161.691 74.4016 153.312ZM69.7328 131.961C69.7328 131.961 61.3766 138.147 74.1437 139.469C90.6547 141.173 103.691 141.313 126.259 136.969C126.259 136.969 129.373 140.133 134.278 141.861C88.1188 155.361 36.7063 142.923 69.7328 131.961Z" fill="#0074BD"/>
<path d="M109.066 95.736C118.48 106.572 106.597 116.314 106.597 116.314C106.597 116.314 130.486 103.984 119.517 88.5376C109.269 74.1392 101.412 66.9876 143.947 42.3188C143.947 42.3204 77.1797 58.9907 109.066 95.736Z" fill="#EA2D2E"/>
<path d="M159.567 169.108C159.567 169.108 165.081 173.655 153.492 177.169C131.458 183.844 61.7641 185.856 42.4078 177.436C35.4531 174.408 48.5 170.209 52.6047 169.324C56.8844 168.397 59.3281 168.566 59.3281 168.566C51.5891 163.117 9.30781 179.269 37.8547 183.902C115.7 196.52 179.756 178.219 159.567 169.108ZM77.9875 109.834C77.9875 109.834 42.5406 118.255 65.4359 121.316C75.1047 122.609 94.3703 122.313 112.328 120.806C127 119.574 141.723 116.941 141.723 116.941C141.723 116.941 136.555 119.158 132.811 121.711C96.8078 131.181 27.2734 126.77 47.2938 117.089C64.2188 108.903 77.9875 109.834 77.9875 109.834ZM141.577 145.377C178.172 126.366 161.25 108.095 149.439 110.556C146.552 111.158 145.256 111.681 145.256 111.681C145.256 111.681 146.331 109.995 148.381 109.27C171.745 101.059 189.711 133.494 140.845 146.341C140.845 146.338 141.406 145.83 141.577 145.377Z" fill="#0074BD"/>
<path d="M119.517 2.47974C119.517 2.47974 139.78 22.7547 100.294 53.9219C68.6281 78.9313 93.0734 93.1876 100.283 109.483C81.7969 92.8063 68.2375 78.1235 77.3328 64.4594C90.6891 44.4063 127.691 34.6797 119.517 2.47974Z" fill="#EA2D2E"/>
<path d="M81.5844 196.908C116.703 199.153 170.647 195.658 171.923 179.039C171.923 179.039 169.469 185.339 142.897 190.338C112.919 195.981 75.9375 195.323 54.0109 191.703C54.0109 191.705 58.5031 195.423 81.5844 196.908Z" fill="#0074BD"/>
</svg>
