<svg width="29" height="23" viewBox="0 0 29 23" fill="none" xmlns="http://www.w3.org/2000/svg">
<path d="M14.5 16.2918C13.8591 16.2918 13.2444 16.0899 12.7912 15.7304C12.338 15.371 12.0834 14.8835 12.0834 14.3752C12.0834 13.3114 13.1588 12.4585 14.5 12.4585C15.141 12.4585 15.7557 12.6604 16.2089 13.0199C16.6621 13.3793 16.9167 13.8668 16.9167 14.3752C16.9167 14.8835 16.6621 15.371 16.2089 15.7304C15.7557 16.0899 15.141 16.2918 14.5 16.2918ZM21.75 19.1668V9.5835H7.25004V19.1668H21.75ZM21.75 7.66683C22.391 7.66683 23.0057 7.86876 23.4589 8.22821C23.9121 8.58765 24.1667 9.07516 24.1667 9.5835V19.1668C24.1667 19.6752 23.9121 20.1627 23.4589 20.5221C23.0057 20.8816 22.391 21.0835 21.75 21.0835H7.25004C6.6091 21.0835 5.99441 20.8816 5.5412 20.5221C5.08799 20.1627 4.83337 19.6752 4.83337 19.1668V9.5835C4.83337 8.51975 5.90879 7.66683 7.25004 7.66683H8.45837V5.75016C8.45837 4.47933 9.0949 3.26055 10.2279 2.36194C11.361 1.46333 12.8977 0.958496 14.5 0.958496C15.2934 0.958496 16.0791 1.08244 16.8121 1.32324C17.5451 1.56404 18.2111 1.917 18.7721 2.36194C19.3332 2.80689 19.7782 3.33512 20.0818 3.91647C20.3854 4.49782 20.5417 5.12091 20.5417 5.75016V7.66683H21.75ZM14.5 2.87516C13.5386 2.87516 12.6166 3.17806 11.9368 3.71723C11.257 4.2564 10.875 4.98767 10.875 5.75016V7.66683H18.125V5.75016C18.125 4.98767 17.7431 4.2564 17.0633 3.71723C16.3835 3.17806 15.4614 2.87516 14.5 2.87516Z" fill="black"/>
</svg>
