<svg width="100" height="100" viewBox="0 0 80 66" fill="none" xmlns="http://www.w3.org/2000/svg">
<path fill-rule="evenodd" clip-rule="evenodd" d="M54.3099 24.2502C54.3099 27.3444 52.8004 30.3118 50.1135 32.4997C47.4266 34.6877 43.7823 35.9168 39.9825 35.9168C36.1826 35.9168 32.5383 34.6877 29.8514 32.4997C27.1645 30.3118 25.655 27.3444 25.655 24.2502C25.655 21.156 27.1645 18.1885 29.8514 16.0006C32.5383 13.8127 36.1826 12.5835 39.9825 12.5835C43.7823 12.5835 47.4266 13.8127 50.1135 16.0006C52.8004 18.1885 54.3099 21.156 54.3099 24.2502ZM47.1462 24.2502C47.1462 25.7973 46.3914 27.281 45.048 28.375C43.7045 29.4689 41.8824 30.0835 39.9825 30.0835C38.0825 30.0835 36.2604 29.4689 34.9169 28.375C33.5735 27.281 32.8187 25.7973 32.8187 24.2502C32.8187 22.7031 33.5735 21.2193 34.9169 20.1254C36.2604 19.0314 38.0825 18.4168 39.9825 18.4168C41.8824 18.4168 43.7045 19.0314 45.048 20.1254C46.3914 21.2193 47.1462 22.7031 47.1462 24.2502Z" fill="#2BBBD4"/>
<path fill-rule="evenodd" clip-rule="evenodd" d="M39.9825 0.916748C18.2226 0.916748 0.581871 15.2813 0.581871 33.0001C0.581871 50.7188 18.2226 65.0834 39.9825 65.0834C61.7423 65.0834 79.383 50.7188 79.383 33.0001C79.383 15.2813 61.7423 0.916748 39.9825 0.916748ZM7.74561 33.0001C7.74561 39.0959 10.2995 44.7076 14.5798 49.1642C17.5866 45.9505 21.4647 43.3459 25.9116 41.5539C30.3584 39.7618 35.2537 38.8308 40.2153 38.8334C45.1131 38.8288 49.9475 39.7349 54.3498 41.4828C58.7522 43.2307 62.6062 45.7742 65.6179 48.9192C68.7214 45.6048 70.811 41.7361 71.7139 37.6335C72.6167 33.5308 72.3068 29.3121 70.8098 25.3263C69.3128 21.3405 66.6718 17.7023 63.1052 14.7127C59.5386 11.7231 55.149 9.468 50.2996 8.13406C45.4502 6.80013 40.2805 6.42566 35.2181 7.04167C30.1557 7.65767 25.3462 9.24643 21.1876 11.6765C17.0289 14.1065 13.6407 17.308 11.3032 21.0161C8.96577 24.7241 7.74626 28.8321 7.74561 33.0001ZM39.9825 59.2501C32.582 59.2598 25.4048 57.1867 19.6661 53.3817C21.9757 50.6885 25.0503 48.4896 28.6282 46.9723C32.2061 45.4549 36.1812 44.6639 40.2153 44.6667C44.199 44.6639 48.126 45.4352 51.6701 46.9164C55.2141 48.3977 58.273 50.5462 60.5925 53.1834C54.8095 57.1122 47.5139 59.2597 39.9825 59.2501Z" fill="#2BBBD4"/>
</svg>
