<svg width="100" height="90" viewBox="0 0 200 200" fill="none" xmlns="http://www.w3.org/2000/svg">
<path d="M153.125 0H46.875C20.9867 0 0 20.9867 0 46.875V153.125C0 179.013 20.9867 200 46.875 200H153.125C179.013 200 200 179.013 200 153.125V46.875C200 20.9867 179.013 0 153.125 0Z" fill="#F4F2ED"/>
<path d="M99.4367 22.6562C59.7711 22.6562 62.2477 39.8578 62.2477 39.8578L62.2922 57.6781H100.145V63.0297H47.257C47.257 63.0297 21.875 60.15 21.875 100.173C21.875 140.195 44.0289 138.777 44.0289 138.777H57.2508V120.205C57.2508 120.205 56.5383 98.0508 79.0516 98.0508H116.594C116.594 98.0508 137.687 98.3914 137.687 77.6648V43.3953C137.687 43.3953 140.889 22.6562 99.4367 22.6562ZM78.5648 34.6398C79.4594 34.6391 80.3453 34.8148 81.1718 35.1568C81.9984 35.4988 82.7494 36.0004 83.382 36.6329C84.0145 37.2654 84.5161 38.0164 84.8581 38.843C85.2001 39.6696 85.3757 40.5555 85.375 41.45C85.3756 42.3445 85.1999 43.2303 84.8578 44.0567C84.5158 44.8832 84.0142 45.6342 83.3817 46.2666C82.7492 46.899 81.9982 47.4006 81.1716 47.7425C80.3451 48.0845 79.4593 48.2601 78.5648 48.2594C77.6705 48.26 76.7847 48.0843 75.9583 47.7423C75.1319 47.4003 74.3809 46.8988 73.7485 46.2663C73.1161 45.6339 72.6145 44.883 72.2725 44.0566C71.9306 43.2301 71.7549 42.3444 71.7555 41.45C71.7547 40.5555 71.9304 39.6697 72.2723 38.8432C72.6143 38.0167 73.1158 37.2657 73.7482 36.6332C74.3807 36.0006 75.1316 35.499 75.9581 35.157C76.7846 34.815 77.6704 34.6392 78.5648 34.6398Z" fill="url(#paint0_linear_25_290)"/>
<path d="M100.563 178.092C140.229 178.092 137.752 160.891 137.752 160.891L137.708 143.07H99.8554V137.72H152.743C152.743 137.72 178.125 140.598 178.125 100.575C178.125 60.5515 155.971 61.9711 155.971 61.9711H142.749V80.5437C142.749 80.5437 143.462 102.698 120.948 102.698H83.4062C83.4062 102.698 62.3125 102.356 62.3125 123.083V157.353C62.3125 157.353 59.1101 178.092 100.563 178.092ZM121.435 166.109C120.541 166.109 119.655 165.934 118.828 165.592C118.002 165.25 117.251 164.748 116.618 164.116C115.986 163.483 115.484 162.732 115.142 161.906C114.8 161.079 114.624 160.194 114.625 159.299C114.624 158.405 114.8 157.519 115.142 156.692C115.484 155.866 115.986 155.115 116.618 154.482C117.251 153.85 118.002 153.348 118.828 153.006C119.655 152.664 120.541 152.488 121.435 152.489C122.33 152.488 123.216 152.664 124.042 153.006C124.869 153.348 125.62 153.85 126.252 154.482C126.885 155.115 127.386 155.866 127.728 156.692C128.07 157.519 128.246 158.405 128.245 159.299C128.246 160.194 128.07 161.079 127.728 161.906C127.386 162.732 126.884 163.483 126.252 164.116C125.619 164.748 124.868 165.25 124.042 165.592C123.215 165.934 122.33 166.109 121.435 166.109Z" fill="url(#paint1_linear_25_290)"/>
<defs>
<linearGradient id="paint0_linear_25_290" x1="36.8906" y1="36.6375" x2="114.323" y2="113.297" gradientUnits="userSpaceOnUse">
<stop stop-color="#387EB8"/>
<stop offset="1" stop-color="#366994"/>
</linearGradient>
<linearGradient id="paint1_linear_25_290" x1="84.4187" y1="85.8633" x2="167.572" y2="164.47" gradientUnits="userSpaceOnUse">
<stop stop-color="#FFE052"/>
<stop offset="1" stop-color="#FFC331"/>
</linearGradient>
</defs>
</svg>
