<svg width="100" height="100" viewBox="0 0 200 200" fill="none" xmlns="http://www.w3.org/2000/svg">
<path fill-rule="evenodd" clip-rule="evenodd" d="M116.667 49.9999H83.3333C81.1232 49.9999 79.0036 50.8779 77.4408 52.4407C75.878 54.0035 75 56.1231 75 58.3333V141.667C75 143.877 75.878 145.996 77.4408 147.559C79.0036 149.122 81.1232 150 83.3333 150H116.667C118.877 150 120.996 149.122 122.559 147.559C124.122 145.996 125 143.877 125 141.667V58.3333C125 56.1231 124.122 54.0035 122.559 52.4407C120.996 50.8779 118.877 49.9999 116.667 49.9999ZM83.3333 33.3333C76.7029 33.3333 70.3441 35.9672 65.6557 40.6556C60.9673 45.344 58.3333 51.7028 58.3333 58.3333V141.667C58.3333 148.297 60.9673 154.656 65.6557 159.344C70.3441 164.033 76.7029 166.667 83.3333 166.667H116.667C123.297 166.667 129.656 164.033 134.344 159.344C139.033 154.656 141.667 148.297 141.667 141.667V58.3333C141.667 51.7028 139.033 45.344 134.344 40.6556C129.656 35.9672 123.297 33.3333 116.667 33.3333H83.3333Z" fill="black"/>
<path d="M50 62.1665L29.1083 58.6831C25.5279 58.0866 21.8604 58.277 18.361 59.2409C14.8615 60.2049 11.6139 61.9193 8.84385 64.265C6.07383 66.6108 3.84785 69.5316 2.3206 72.8245C0.793347 76.1174 0.00147039 79.7033 8.56913e-07 83.3331V124.308C-0.000949828 127.939 0.789148 131.527 2.31534 134.822C3.84154 138.117 6.06719 141.04 8.8375 143.388C11.6078 145.735 14.8563 147.451 18.3569 148.416C21.8576 149.381 25.5265 149.572 29.1083 148.975L50 145.483V128.591L26.3667 132.525C25.1741 132.723 23.9526 132.659 22.7871 132.338C21.6215 132.017 20.5398 131.447 19.6169 130.666C18.694 129.885 17.9521 128.912 17.4427 127.816C16.9332 126.72 16.6684 125.525 16.6667 124.316V83.3415C16.666 82.1311 16.929 80.9351 17.4374 79.8367C17.9458 78.7383 18.6874 77.7638 19.6105 76.981C20.5337 76.1982 21.6163 75.6259 22.7831 75.3039C23.9498 74.9819 25.1727 74.918 26.3667 75.1165L50 79.0581V62.1665ZM150 62.1665L170.892 58.6831C174.472 58.0866 178.14 58.277 181.639 59.2409C185.139 60.2049 188.386 61.9193 191.156 64.265C193.926 66.6108 196.152 69.5316 197.679 72.8245C199.207 76.1174 199.999 79.7033 200 83.3331V124.308C200.001 127.939 199.211 131.527 197.685 134.822C196.158 138.117 193.933 141.04 191.163 143.388C188.392 145.735 185.144 147.451 181.643 148.416C178.142 149.381 174.474 149.572 170.892 148.975L150 145.483V128.591L173.633 132.525C174.826 132.723 176.047 132.659 177.213 132.338C178.378 132.017 179.46 131.447 180.383 130.666C181.306 129.885 182.048 128.912 182.557 127.816C183.067 126.72 183.332 125.525 183.333 124.316V83.3415C183.334 82.1311 183.071 80.9351 182.563 79.8367C182.054 78.7383 181.313 77.7638 180.389 76.981C179.466 76.1982 178.384 75.6259 177.217 75.3039C176.05 74.9819 174.827 74.918 173.633 75.1165L150 79.0581V62.1665Z" fill="black"/>
</svg>
