<svg width="24" height="25" viewBox="0 0 24 25" fill="none" xmlns="http://www.w3.org/2000/svg">
<path d="M4.66667 6.875C4.66667 5.05164 5.43928 3.30295 6.81455 2.01364C8.18982 0.724328 10.0551 0 12 0C13.9449 0 15.8102 0.724328 17.1855 2.01364C18.5607 3.30295 19.3333 5.05164 19.3333 6.875C19.3333 8.69836 18.5607 10.447 17.1855 11.7364C15.8102 13.0257 13.9449 13.75 12 13.75C10.0551 13.75 8.18982 13.0257 6.81455 11.7364C5.43928 10.447 4.66667 8.69836 4.66667 6.875ZM0 21.25C0 19.5924 0.702379 18.0027 1.95262 16.8306C3.20286 15.6585 4.89856 15 6.66667 15H17.3333C19.1014 15 20.7971 15.6585 22.0474 16.8306C23.2976 18.0027 24 19.5924 24 21.25V25H0V21.25Z" fill="black"/>
</svg>
