<svg width="100" height="100" viewBox="0 0 200 200" fill="none" xmlns="http://www.w3.org/2000/svg">
<path d="M136.333 116.667C137 111.167 137.5 105.667 137.5 100C137.5 94.3334 137 88.8334 136.333 83.3334H164.5C165.833 88.6668 166.667 94.2501 166.667 100C166.667 105.75 165.833 111.333 164.5 116.667M121.583 163C126.583 153.75 130.417 143.75 133.083 133.333H157.667C149.593 147.236 136.784 157.767 121.583 163ZM119.5 116.667H80.5C79.6667 111.167 79.1667 105.667 79.1667 100C79.1667 94.3334 79.6667 88.7501 80.5 83.3334H119.5C120.25 88.7501 120.833 94.3334 120.833 100C120.833 105.667 120.25 111.167 119.5 116.667ZM100 166.333C93.0834 156.333 87.5 145.25 84.0834 133.333H115.917C112.5 145.25 106.917 156.333 100 166.333ZM66.6667 66.6668H42.3334C50.322 52.7254 63.1222 42.1771 78.3334 37.0001C73.3334 46.2501 69.5834 56.2501 66.6667 66.6668ZM42.3334 133.333H66.6667C69.5834 143.75 73.3334 153.75 78.3334 163C63.1522 157.769 50.3691 147.235 42.3334 133.333ZM35.5 116.667C34.1667 111.333 33.3334 105.75 33.3334 100C33.3334 94.2501 34.1667 88.6668 35.5 83.3334H63.6667C63 88.8334 62.5 94.3334 62.5 100C62.5 105.667 63 111.167 63.6667 116.667M100 33.5834C106.917 43.5834 112.5 54.7501 115.917 66.6668H84.0834C87.5 54.7501 93.0834 43.5834 100 33.5834ZM157.667 66.6668H133.083C130.471 56.3468 126.609 46.3843 121.583 37.0001C136.917 42.2501 149.667 52.8334 157.667 66.6668ZM100 16.6667C53.9167 16.6667 16.6667 54.1668 16.6667 100C16.6667 122.101 25.4464 143.298 41.0745 158.926C48.8127 166.664 57.9993 172.802 68.1097 176.99C78.2202 181.178 89.0565 183.333 100 183.333C122.101 183.333 143.298 174.554 158.926 158.926C174.554 143.298 183.333 122.101 183.333 100C183.333 89.0566 181.178 78.2203 176.99 68.1098C172.802 57.9993 166.664 48.8127 158.926 41.0745C151.187 33.3363 142.001 27.198 131.89 23.0101C121.78 18.8222 110.944 16.6667 100 16.6667Z" fill="black"/>
</svg>
